Coordinates
version=1
nRows=10
nColumns=34
inDegrees=yes

Units are S.I. units (second, meters, Newtons, ...)
If the header above contains a line with 'inDegrees', this indicates whether rotational values are in degrees (yes) or radians (no).

endheader
time	pelvis_tilt	pelvis_list	pelvis_rotation	pelvis_tx	pelvis_ty	pelvis_tz	hip_flexion_r	hip_adduction_r	hip_rotation_r	knee_angle_r	ankle_angle_r	subtalar_angle_r	mtp_angle_r	hip_flexion_l	hip_adduction_l	hip_rotation_l	knee_angle_l	ankle_angle_l	subtalar_angle_l	mtp_angle_l	lumbar_extension	lumbar_bending	lumbar_rotation	arm_flex_r	arm_add_r	arm_rot_r	elbow_flex_r	pro_sup_r	arm_flex_l	arm_add_l	arm_rot_l	elbow_flex_l	pro_sup_l
      1.25000000	     -7.85464951	      4.00314309	     -0.28675369	     -0.07405308	      1.23581535	     -0.09572216	      4.67313281	      0.23816280	     -0.32878665	      0.00000000	      4.53780649	    -13.60550224	      0.00000000	      5.37882847	      0.29597244	     -2.70945201	      0.00000000	      1.27676879	      0.05729153	      0.00000000	      1.24507039	      1.20622221	      0.54239589	     -2.99687234	     -7.15093196	     10.27887971	     21.98896173	     94.77688624	     -3.90717603	     -9.09312223	      6.11119307	     49.45944805	     96.33227218
      1.26666670	     -8.06440444	      4.03362338	     -0.48296419	     -0.07517717	      1.24040535	     -0.09449351	      4.89683510	      0.21619672	     -0.08766002	      0.00000000	      4.74409917	    -13.20517266	      0.00000000	      5.57331998	      0.26300172	     -2.69638257	      0.00000000	      1.00659668	     -0.24083360	      0.00000000	      0.89841590	      0.92025796	      0.12002482	     -3.22679563	     -7.25019307	      9.78786744	     22.03713506	     93.64057263	     -3.95210010	     -8.22056933	      7.04630409	     41.77595151	     95.57781747
      1.28333330	     -8.18568568	      4.11919167	     -0.45146699	     -0.07368167	      1.23811921	     -0.09367714	      5.01631471	      0.13977033	     -0.18367446	      0.00000000	      4.69423126	    -13.06575642	      0.00000000	      5.67258731	      0.29225221	     -2.38214539	      0.00000000	      0.79904333	     -0.63679220	      0.00000000	      0.43098218	      0.44522759	     -0.54450502	     -3.56431331	     -7.21704075	      9.54344235	     22.02314920	     92.88611603	     -4.18815329	     -7.81062429	      8.22598492	     35.51630820	     95.05734229
      1.30000000	     -8.37986202	      4.24955631	     -0.77796207	     -0.07221467	      1.24392284	     -0.09272960	      5.23356187	      0.03959835	      0.11636193	      0.00000000	      4.84309663	    -12.66494741	      0.00000000	      5.74873296	      0.34577005	     -2.67815393	      0.00000000	     -0.09321018	     -1.17848439	      0.00000000	      0.11064910	      0.01009225	      0.10072553	     -4.46330327	     -7.31757229	      8.98407854	     21.75305732	     91.53621951	     -3.91102710	     -7.26779964	     10.18648165	     29.44748932	     93.96074671
      1.31666670	     -8.38872981	      4.37185399	     -0.82425693	     -0.07266254	      1.24617517	     -0.09322920	      5.18555505	     -0.07973554	      0.04996288	      0.00000000	      4.21549980	    -12.78197551	      0.00000000	      5.62159240	      0.43961140	     -2.69253350	      0.00000000	     -1.17517365	     -2.24253754	      0.00000000	     -0.54737386	     -0.41306784	     -0.12599544	     -4.89910004	     -7.41863233	      8.45139023	     21.58296127	     90.41599885	     -4.18099716	     -7.09463488	     11.48445356	     25.17491179	     92.87556593
      1.33333330	     -8.34737692	      4.50631955	     -1.00980619	     -0.07546904	      1.25059339	     -0.09203279	      5.17409819	     -0.17334458	     -0.08334697	      0.00000000	      4.03722133	    -12.42362812	      0.00000000	      5.47557164	      0.53503437	     -2.85464252	      0.00000000	     -2.18776650	     -3.20596337	      0.00000000	     -1.35890932	     -0.82694894	     -0.29640020	     -5.05202169	     -7.54341620	      8.05210746	     21.30041354	     89.57320916	     -4.46920875	     -7.08931580	     12.12764550	     21.90152776	     91.90966463
      1.35000000	     -8.10405850	      4.60644668	     -1.15929204	     -0.07424714	      1.24836262	     -0.09259295	      4.90487053	     -0.24865229	     -0.01408352	      0.02069375	      3.80237909	    -12.43350469	      0.00000000	      5.17292155	      0.64895896	     -2.98641171	      0.00000000	     -3.29753170	     -4.17489780	      0.00000000	     -2.41843616	     -1.09685968	     -0.37033569	     -5.24970751	     -7.70943021	      7.71857645	     20.98567289	     88.86998367	     -4.96478412	     -7.14032522	     12.40760331	     19.53319958	     91.03954668
      1.36666670	     -8.09582966	      4.70651186	     -1.35144751	     -0.07398688	      1.24502021	     -0.09278446	      5.38874533	     -0.30112185	      0.04234899	      0.83067394	      3.97890789	    -12.42969840	      0.00000000	      5.83142919	      0.69171429	     -3.44189399	      1.25708835	     -3.35633452	     -4.63693638	      0.00000000	     -3.42389392	     -1.36470855	     -0.31336259	     -5.35330406	     -7.91845374	      7.62851567	     20.93728299	     88.75215185	     -5.86793131	     -7.39102821	     12.43610765	     18.77202603	     90.90563698
      1.38333330	     -8.13690266	      4.76658771	     -1.49534215	     -0.07837165	      1.24140638	     -0.09217524	      6.19226529	     -0.33543657	      0.07600121	      2.04622103	      4.39660432	    -12.61665901	      0.00000000	      6.92575292	      0.69138387	     -3.72329165	      3.04696826	     -3.15942210	     -5.36699077	      0.00000000	     -4.46489023	     -1.46837009	     -0.35435938	     -5.21600970	     -8.08227882	      7.53152771	     20.96547023	     88.62032360	     -6.57949946	     -7.66080428	     12.42248488	     17.88534844	     90.75107205
      1.40000000	     -9.17857171	      4.77978335	     -1.50813015	     -0.07461733	      1.23861473	     -0.09304406	      8.17842071	     -0.36787160	     -0.08813600	      3.61219980	      4.70639491	    -13.17741986	      0.00000000	      9.16280849	      0.66030679	     -3.20950351	      5.10031332	     -3.25961295	     -7.09242091	      0.00000000	     -3.71118211	     -1.51214321	     -0.57509627	     -5.61261362	     -8.26667999	      7.35850624	     20.91001084	     88.02993601	     -7.60534027	     -7.50656381	     12.23042406	     15.67602530	     89.95358387
